<svg width="607" height="601" viewBox="0 0 607 601" fill="none" xmlns="http://www.w3.org/2000/svg">
<path d="M143.13 0.191947C143.596 0.179447 144.063 0.171444 144.53 0.167944L369.962 0.180945L433.702 0.16944C456.577 0.13494 478.022 -1.11956 500.492 3.75794C525.212 9.06594 547.917 21.2915 565.957 39.0095C594.482 67.0945 605.877 102.337 606.147 141.548L606.237 367.062L606.292 430.187C606.382 452.557 607.347 475.807 602.487 497.727C597.242 521.402 583.932 544.517 566.622 561.502C539.087 588.517 506.607 600.247 468.642 600.497L229.761 600.442L166.106 600.522C145.097 600.542 127.379 601.642 106.671 597.267C81.7813 592.127 58.8663 580.017 40.5978 562.352C13.1498 536.217 0.286834 499.667 0.220334 462.442C0.177334 438.187 0.216327 413.907 0.197827 389.652L0.191327 240.55L0.0993315 171.397C0.0693315 150.377 -0.827166 128.927 3.39933 108.29C8.45333 83.171 20.5328 60.0014 38.2343 41.4754C67.8713 10.8429 102.044 0.766947 143.13 0.191947Z" fill="black"/>
<path d="M19.3673 105.563C21.9528 94.6714 26.0598 84.1985 31.5673 74.452C47.2913 47.1935 73.2293 27.3234 103.642 19.2389C113.127 16.7059 122.859 15.2094 132.667 14.7759C153.713 13.7369 181.396 14.5204 202.976 14.5249L335.692 14.5395L429.647 14.542C444.522 14.5475 468.462 13.8335 482.687 15.3715C500.477 17.274 517.677 22.8414 533.207 31.7234C559.712 47.4299 578.917 72.989 586.632 102.814C593.272 118.714 591.802 163.091 591.777 180.719C591.762 193.909 591.967 211.009 591.747 224.324L591.637 396.572L591.687 441.707C591.717 460.962 592.557 475.227 588.242 494.377C583.462 515.937 572.572 535.667 556.867 551.197C540.272 567.482 519.342 578.642 496.577 583.357C476.537 587.487 455.952 586.432 435.487 586.412L369.862 586.387L140.611 586.367C75.3918 585.812 23.4193 546.002 15.8203 479.097C14.6448 468.747 14.8418 458.307 14.7838 447.902C14.6893 437.042 14.6803 426.177 14.7573 415.312C14.7638 414.482 14.7763 413.647 14.7953 412.817L14.8178 213.775L14.8048 161.921C14.8063 150.652 14.3973 114.961 19.3673 105.563Z" fill="black"/>
<path d="M19.3673 105.563C21.9528 94.6714 26.0598 84.1985 31.5673 74.452C47.2913 47.1935 73.2293 27.3234 103.642 19.2389C113.127 16.7059 122.859 15.2094 132.667 14.7759C153.713 13.7369 181.396 14.5204 202.976 14.5249L335.692 14.5395L429.647 14.542C444.522 14.5475 468.462 13.8335 482.687 15.3715C500.477 17.274 517.677 22.8414 533.207 31.7234C559.712 47.4299 578.917 72.989 586.632 102.814C593.272 118.714 591.802 163.091 591.777 180.719C591.762 193.909 591.967 211.009 591.747 224.324C558.372 258.28 523.572 290.807 487.437 321.817C485.162 323.747 476.117 331.902 474.172 332.057C473.747 331.262 473.467 329.962 473.162 329.572C472.182 301.047 441.812 293.867 423.497 312.617C423.562 299.297 426.377 277.19 416.067 267.347C405.232 257.009 386.267 257.8 376.262 269.15C373.487 272.289 371.567 276.09 370.687 280.187C369.352 286.628 369.872 300.367 369.907 307.692L369.922 339.927C359.222 330.017 347.637 329.627 335.087 335.692C340.337 323.897 341.922 313.542 337.092 301.047C332.812 290.202 324.382 281.513 313.677 276.899C302.617 272.158 290.078 272.053 278.798 276.322C264.965 281.557 253.288 300.002 244.521 312.032C244.234 269.76 244.201 227.488 244.421 185.218L244.447 154.274C244.448 145.587 244.809 134.558 243.052 126.257C241.17 117.74 236.798 109.974 230.493 103.948C222.328 96.1205 211.032 92.0704 199.773 92.3704C188.121 92.5719 177.042 97.46 169.038 105.931C163.233 112.149 159.327 119.897 157.78 128.262C156.358 135.932 156.811 144.903 156.851 152.784L156.932 182.686C156.977 224.863 157.577 268.848 157.032 310.917C142.504 293.867 133.588 275.148 109.537 273.363C97.1543 272.338 84.8888 276.4 75.5663 284.614C67.2953 291.897 61.6113 302.527 61.0348 313.607C60.6408 320.967 62.2003 328.292 65.5553 334.852C70.8603 345.132 86.2833 363.442 93.8688 373.747C116.126 403.992 140.3 434.037 162.378 464.352C158.296 464.972 148.846 463.327 144.57 462.712C103.073 456.712 60.9143 443.762 25.8333 420.337C22.6313 418.197 18.7633 414.952 15.4898 413.187L14.7953 412.817L14.8178 213.775L14.8048 161.921C14.8063 150.652 14.3973 114.961 19.3673 105.563Z" fill="white"/>
<path d="M19.3673 105.563C21.9528 94.6714 26.0598 84.1985 31.5673 74.452C47.2913 47.1935 73.2293 27.3234 103.642 19.2389C113.127 16.7059 122.859 15.2094 132.667 14.7759C153.713 13.7369 181.396 14.5204 202.976 14.5249L335.692 14.5395L429.647 14.542C444.522 14.5475 468.462 13.8335 482.687 15.3715C500.477 17.274 517.677 22.8414 533.207 31.7234C559.712 47.4299 578.917 72.989 586.632 102.814C585.472 102.159 580.797 92.5029 579.647 90.5974C567.942 71.4114 551.102 55.8809 531.032 45.7614C516.302 38.4139 500.382 33.7384 484.017 31.9519C468.697 30.2594 445.437 30.907 429.412 30.9085L340.927 30.9054L204.496 30.9109C176.216 30.9169 143.176 29.4345 115.816 32.93C79.4718 37.573 43.4243 61.382 25.5953 93.125C24.3408 95.3585 20.5813 104.207 19.3673 105.563Z" fill="white"/>
<path d="M473.162 329.572C473.467 329.962 473.747 331.262 474.172 332.057C476.117 331.902 485.162 323.747 487.437 321.817C523.572 290.807 558.372 258.28 591.747 224.324L591.637 396.572L591.687 441.707C591.717 460.962 592.557 475.227 588.242 494.377C583.462 515.937 572.572 535.667 556.867 551.197C540.272 567.482 519.342 578.642 496.577 583.357C476.537 587.487 455.952 586.432 435.487 586.412L369.862 586.387L140.611 586.367C75.3918 585.812 23.4193 546.002 15.8203 479.097C14.6448 468.747 14.8418 458.307 14.7838 447.902C14.6893 437.042 14.6803 426.177 14.7573 415.312C14.7638 414.482 14.7763 413.647 14.7953 412.817L15.4898 413.187C18.7633 414.952 22.6313 418.197 25.8333 420.337C60.9143 443.762 103.073 456.712 144.57 462.712C148.846 463.327 158.296 464.972 162.378 464.352C165 467.122 168.137 471.012 171.072 473.362C186.225 485.507 208.163 487.147 224.897 477.217C231.276 473.432 235.379 468.947 240.152 463.397C241.763 464.252 248.168 462.737 250.311 462.347C270.375 458.817 290.116 453.647 309.332 446.887C313.092 445.562 319.177 443.562 322.287 441.477C324.162 445.277 325.577 447.997 328.447 451.107C333.422 456.587 340.387 459.842 347.782 460.152C357.012 460.487 362.967 457.477 369.502 451.487C369.957 465.072 369.607 478.657 369.677 492.242C369.697 496.727 369.677 501.277 370.687 505.672C371.607 509.807 373.602 513.627 376.472 516.742C381.587 522.242 388.752 525.377 396.257 525.407C408.387 525.552 420.987 517.122 422.857 505.137C424.272 496.087 423.617 483.702 423.577 474.327C429.707 480.517 436.492 484.632 445.467 484.307C478.552 483.112 473.442 452.027 473.347 429.812C477.202 433.467 480.492 435.897 485.587 437.537C493.037 439.942 501.147 439.172 508.012 435.407C515.542 431.212 518.572 425.777 520.867 417.962C529.197 417.907 535.697 416.262 541.927 410.242C557.147 395.522 549.982 368.002 528.287 364.667C525.727 364.272 523.037 364.392 520.462 364.422C514.452 342.727 488.047 338.862 473.327 354.852C473.482 346.507 473.002 338.047 473.162 329.572Z" fill="white"/>
<path d="M278.466 412.987C277.287 427.602 286.546 439.412 302.212 438.587C310.827 438.132 315.667 432.527 320.762 426.242C320.772 432.372 320.612 435.672 322.287 441.477C319.177 443.562 313.092 445.562 309.332 446.887C290.116 453.647 270.375 458.817 250.311 462.347C248.168 462.737 241.763 464.252 240.152 463.397C253.174 446.742 265.575 429.697 278.466 412.987Z" fill="white"/>
<path d="M170.698 151.178C170.438 137.804 169.215 125.263 179.531 114.721C196.709 97.1685 226.641 106.99 230.299 131.166C231.377 138.294 230.942 147.626 230.923 155.018C231.287 169.508 230.801 185.1 230.75 199.715L230.812 297.817C230.932 309.157 230.465 320.572 230.734 331.902C230.853 336.882 231.284 338.327 235.747 340.612C240.83 339.077 243.862 334.737 246.942 330.657C255.148 319.797 263.181 308.772 271.731 298.177C278.728 289.567 289.015 285.005 300.117 286.905C316.967 289.787 326.227 301.382 326.737 317.987C325.757 329.367 314.537 342.217 307.727 351.302L286.319 379.922L249.118 429.642C243.214 437.487 237.577 445.227 231.433 453.032C223.405 463.227 217.087 468.662 203.853 470.462C195.89 471.542 184.807 467.807 179.079 462.422C171.429 455.232 162.527 442.342 155.948 433.682L115.422 380.282L92.4498 350.167C84.3493 339.572 75.6158 330.812 74.4633 316.992C76.9993 296.027 89.2083 285.595 110.317 286.732C133.058 287.957 150.45 335.642 166.518 340.627C169.492 338.672 170.748 337.592 170.772 333.787C170.821 326.022 170.741 318.257 170.712 310.497L170.699 268.35L170.698 151.178Z" fill="#44B3FF"/>
<path d="M74.4633 316.992C79.2903 316.097 81.3758 315.367 86.0813 317.162L140.639 386.717C151.237 400.202 161.658 415.027 174.075 426.467C188.323 439.592 212.253 439.917 227.032 427.727C239.014 417.842 250.565 401.127 260.149 388.647C271.545 373.997 282.845 359.267 294.047 344.467C299.392 337.392 308.762 323.757 315.702 319.027C319.002 317.967 323.317 317.987 326.737 317.987C325.757 329.367 314.537 342.217 307.727 351.302L286.319 379.922L249.118 429.642C243.214 437.487 237.577 445.227 231.433 453.032C223.405 463.227 217.087 468.662 203.853 470.462C195.89 471.542 184.807 467.807 179.079 462.422C171.429 455.232 162.527 442.342 155.948 433.682L115.422 380.282L92.4498 350.167C84.3493 339.572 75.6158 330.812 74.4633 316.992Z" fill="#198EE6"/>
<path d="M235.747 340.612C240.83 339.077 243.862 334.737 246.942 330.657C255.148 319.797 263.181 308.772 271.731 298.177C278.728 289.567 289.015 285.005 300.117 286.905C316.967 289.787 326.227 301.382 326.737 317.987C323.317 317.987 319.002 317.967 315.702 319.027C314.477 312.747 313.022 307.777 307.292 303.952C302.087 300.487 295.697 299.292 289.594 300.637C268.913 305.097 251.574 351.992 238.562 343.667C237.332 342.877 236.557 341.802 235.747 340.612Z" fill="#88D4FE"/>
<path d="M74.4633 316.992C76.9993 296.027 89.2083 285.595 110.317 286.732C133.058 287.957 150.45 335.642 166.518 340.627C165.571 342.602 163.843 344.457 161.643 345.072C151.039 348.027 130.828 307.752 116.199 301.707C110.37 299.247 103.78 299.337 98.0163 301.942C89.5208 305.777 88.8703 310.112 86.0813 317.162C81.3758 315.367 79.2903 316.097 74.4633 316.992Z" fill="#88D4FE"/>
<path d="M170.698 151.178C170.438 137.804 169.215 125.263 179.531 114.721C196.709 97.1685 226.641 106.99 230.299 131.166C231.377 138.294 230.942 147.626 230.923 155.018C229.614 152.916 227.196 142.106 226.054 138.711C223.582 131.363 217.989 124.615 210.849 121.383C205.06 118.823 198.486 118.69 192.598 121.013C182.34 125.003 176.644 135.204 173.956 145.329C173.215 148.122 172.65 152.676 171.58 155.009C170.781 154.322 170.877 152.584 170.698 151.178Z" fill="#88D4FE"/>
<path d="M383.407 287.217C383.527 282.933 384.322 279.975 387.617 276.895C390.457 274.268 394.272 272.958 398.127 273.284C401.602 273.566 404.817 275.234 407.047 277.913C410.927 282.546 410.667 287.526 410.477 293.152C410.692 303.702 409.422 369.932 411.322 375.242C414.572 378.337 428.617 378.572 429.467 376.097C432.922 365.997 430.397 350.962 431.042 340.057C430.937 329.872 431.042 315.802 445.157 315.242C449.047 315.057 452.832 316.507 455.602 319.247C459.987 323.582 459.937 327.957 460.012 333.542C459.947 340.197 458.637 372.717 461.532 376.202C463.387 378.427 473.417 377.587 476.342 377.467C477.877 377.407 478.832 377.312 479.767 376.012C479.867 375.877 479.912 375.712 479.982 375.562C480.262 370.777 480.157 367.582 483.347 363.632C485.867 360.572 489.512 358.657 493.462 358.322C497.257 357.972 501.032 359.197 503.897 361.712C507.932 365.307 508.507 368.667 508.742 373.577L509.262 377.457C522.437 377.812 532.952 374.362 537.407 389.917L537.212 391.417C536.572 395.702 536.182 396.652 533.427 399.987C522.962 409.777 515.042 401.662 509.477 406.022C507.002 413.057 509.502 420.452 500.502 424.312C491.057 428.357 481.697 423.852 480.052 413.452C479.872 411.117 479.952 408.932 478.887 406.912C475.247 404.937 464.837 404.502 461.442 407.142C459.602 408.572 459.877 410.987 459.832 413.062C460.302 428.727 460.427 445.852 459.397 461.422C458.817 470.197 441.332 475.277 435.482 467.617C428.712 458.762 430.862 441.032 430.872 429.577C430.962 424.717 432.502 410.972 429.572 407.677C427.817 405.707 425.742 405.407 423.242 405.397C420.672 405.382 413.897 404.977 412.152 407.102C408.982 410.972 410.512 437.967 410.547 444.787L410.522 478.772C410.537 486.947 412.197 502.627 406.252 508.337C403.387 511.087 399.487 512.497 395.527 512.212C392.002 512.007 388.722 510.362 386.447 507.667C385.152 506.147 383.597 503.267 383.467 501.297C382.787 491.082 383.217 480.112 383.162 469.842L383.137 432.287C383.142 425.152 382.912 416.502 383.437 409.522C382.867 408.242 382.342 406.907 380.932 406.427C377.402 405.227 364.812 403.907 363.852 408.867C362.957 413.497 363.542 420.827 363.517 425.782C363.542 429.132 363.782 432.437 362.947 435.697C361.272 442.212 355.762 447.397 348.797 447.282C344.852 447.212 341.112 445.522 338.457 442.607C334.307 438.107 334.277 433.692 334.442 428.067C334.377 422.617 334.692 417.337 334.737 411.912C334.812 403.622 324.687 405.407 319.422 405.732C312.132 412.722 300.477 437.262 291.367 418.507C291.407 417.182 291.947 415.172 292.707 414.142C299.967 404.247 312.237 386.232 320.332 377.862C332.662 376.672 336.377 381.252 334.502 363.972C332.862 348.872 347.447 338.957 359.797 349.072C364.572 352.987 363.582 362.352 363.462 368.437C363.452 370.907 363.192 373.407 364.132 375.607C366.652 378.512 379.152 378.392 382.442 375.782C384.722 371.047 382.297 300.582 383.347 287.88L383.407 287.217Z" fill="#44B3FF"/>
<path d="M383.437 409.522C384.297 418.292 383.662 440.377 383.642 450.027C393.572 449.787 401.182 448.317 410.547 444.787L410.522 478.772C410.537 486.947 412.197 502.627 406.252 508.337C403.387 511.087 399.487 512.497 395.527 512.212C392.002 512.007 388.722 510.362 386.447 507.667C385.152 506.147 383.597 503.267 383.467 501.297C382.787 491.082 383.217 480.112 383.162 469.842L383.137 432.287C383.142 425.152 382.912 416.502 383.437 409.522Z" fill="#198EE6"/>
<path d="M459.427 422.427C459.417 420.312 459.072 414.527 459.832 413.062C460.302 428.727 460.427 445.852 459.397 461.422C458.817 470.197 441.332 475.277 435.482 467.617C428.712 458.762 430.862 441.032 430.872 429.577C442.632 429.177 448.747 427.122 459.427 422.427Z" fill="#198EE6"/>
<path d="M320.332 377.862C332.662 376.672 336.377 381.252 334.502 363.972C332.862 348.872 347.447 338.957 359.797 349.072C364.572 352.987 363.582 362.352 363.462 368.437C360.827 364.202 357.457 355.667 352.472 355.077C338.292 353.412 337.517 367.117 337.762 377.322C337.877 381.927 336.352 385.172 333.617 387.877L326.072 388.042C312.857 396.442 305.837 416.822 291.367 418.507C291.407 417.182 291.947 415.172 292.707 414.142C299.967 404.247 312.237 386.232 320.332 377.862Z" fill="#88D4FE"/>
<path d="M507.117 397.487C516.587 398.917 524.637 398.877 533.427 399.987C522.962 409.777 515.042 401.662 509.477 406.022C507.002 413.057 509.502 420.452 500.502 424.312C491.057 428.357 481.697 423.852 480.052 413.452C495.212 413.232 498.252 408.352 507.117 397.487Z" fill="#198EE6"/>
<path d="M363.517 425.782C363.542 429.132 363.782 432.437 362.947 435.697C361.272 442.212 355.762 447.397 348.797 447.282C344.852 447.212 341.112 445.522 338.457 442.607C334.307 438.107 334.277 433.692 334.442 428.067C341.377 432.822 347.467 434.257 355.682 431.382C357.777 430.647 362.522 427.772 363.517 425.782Z" fill="#198EE6"/>
<path d="M431.042 340.057C430.937 329.872 431.042 315.802 445.157 315.242C449.047 315.057 452.832 316.507 455.602 319.247C459.987 323.582 459.937 327.957 460.012 333.542L459.267 334.152C453.157 326.757 449.452 319.002 439.087 326.952C434.422 330.527 433.387 338.122 431.042 340.057Z" fill="#88D4FE"/>
<path d="M383.407 287.217C383.527 282.933 384.322 279.975 387.617 276.895C390.457 274.268 394.272 272.958 398.127 273.284C401.602 273.566 404.817 275.234 407.047 277.913C410.927 282.546 410.667 287.526 410.477 293.152C408.032 291.712 405.467 283.739 399.492 282.775C389.177 281.112 387.157 290.437 384.107 292.527C383.232 291.262 383.437 288.892 383.407 287.217Z" fill="#88D4FE"/>
<path d="M479.982 375.562C480.262 370.777 480.157 367.582 483.347 363.632C485.867 360.572 489.512 358.657 493.462 358.322C497.257 357.972 501.032 359.197 503.897 361.712C507.932 365.307 508.507 368.667 508.742 373.577L508.062 374.212C502.802 370.877 499.332 365.777 491.797 367.497C486.402 368.727 483.662 373.342 479.982 375.562Z" fill="#88D4FE"/>
<path d="M509.262 377.457C522.437 377.812 532.952 374.362 537.407 389.917L535.577 389.467C528.747 387.767 523.247 387.932 516.237 387.777C511.772 385.167 509.347 382.802 509.262 377.457Z" fill="#88D4FE"/>
<path d="M507.117 397.487C513.062 393.022 528.167 393.837 537.212 391.417C536.572 395.702 536.182 396.652 533.427 399.987C524.637 398.877 516.587 398.917 507.117 397.487Z" fill="#28A0F6"/>
<path d="M320.807 356.362C321.112 358.302 321.067 362.347 321.107 364.507L315.237 365.002C315.377 363.297 319.492 358.192 320.807 356.362Z" fill="#3F3F3F"/>
</svg>
